<svg width="33" height="41" viewBox="0 0 33 41" fill="none" xmlns="http://www.w3.org/2000/svg">
<path d="M26.5941 12.4148V10.4148C26.5941 4.90079 22.1081 0.414795 16.5941 0.414795C11.0801 0.414795 6.59406 4.90079 6.59406 10.4148V16.4148H4.59406C2.38806 16.4148 0.594055 18.2088 0.594055 20.4148V36.4148C0.594055 38.6208 2.38806 40.4148 4.59406 40.4148H28.5941C30.8001 40.4148 32.5941 38.6208 32.5941 36.4148V20.4148C32.5941 18.2088 30.8001 16.4148 28.5941 16.4148H10.5941V10.4148C10.5941 7.10679 13.2861 4.41479 16.5941 4.41479C19.9021 4.41479 22.5941 7.10679 22.5941 10.4148V12.4148H26.5941ZM28.5941 20.4148L28.5981 36.4148H4.59406V20.4148H28.5941Z" fill="#A4A2A2"/>
</svg>
