<svg width="36" height="36" viewBox="0 0 36 36" fill="none" xmlns="http://www.w3.org/2000/svg">
<path d="M18 18C20.3869 18 22.6761 17.0518 24.364 15.364C26.0518 13.6761 27 11.3869 27 9C27 6.61305 26.0518 4.32387 24.364 2.63604C22.6761 0.948212 20.3869 0 18 0C15.6131 0 13.3239 0.948212 11.636 2.63604C9.94821 4.32387 9 6.61305 9 9C9 11.3869 9.94821 13.6761 11.636 15.364C13.3239 17.0518 15.6131 18 18 18ZM24 9C24 10.5913 23.3679 12.1174 22.2426 13.2426C21.1174 14.3679 19.5913 15 18 15C16.4087 15 14.8826 14.3679 13.7574 13.2426C12.6321 12.1174 12 10.5913 12 9C12 7.4087 12.6321 5.88258 13.7574 4.75736C14.8826 3.63214 16.4087 3 18 3C19.5913 3 21.1174 3.63214 22.2426 4.75736C23.3679 5.88258 24 7.4087 24 9ZM36 33C36 36 33 36 33 36H3C3 36 0 36 0 33C0 30 3 21 18 21C33 21 36 30 36 33ZM33 32.988C32.997 32.25 32.538 30.03 30.504 27.996C28.548 26.04 24.867 24 18 24C11.13 24 7.452 26.04 5.496 27.996C3.462 30.03 3.006 32.25 3 32.988H33Z" fill="#A4A2A2"/>
</svg>
